<?xml version="1.0" standalone="no"?>
<!DOCTYPE svg PUBLIC "-//W3C//DTD SVG 20010904//EN"
 "http://www.w3.org/TR/2001/REC-SVG-20010904/DTD/svg10.dtd">
<svg version="1.0" xmlns="http://www.w3.org/2000/svg"
 width="150.000000pt" height="150.000000pt" viewBox="0 0 150.000000 150.000000"
 preserveAspectRatio="xMidYMid meet">
<metadata>
Created by potrace 1.11, written by Peter Selinger 2001-2013
</metadata>
<g transform="translate(0.000000,150.000000) scale(0.100000,-0.100000)"
fill="#000000" stroke="none">
<path d="M0 750 l0 -750 750 0 750 0 0 750 0 750 -750 0 -750 0 0 -750z m1228
471 c20 -10 46 -28 56 -40 19 -21 19 -22 -9 -103 l-28 -82 21 -14 c12 -8 22
-25 22 -38 0 -12 7 -30 16 -38 13 -14 14 -22 4 -52 l-12 -37 -51 6 c-27 4 -52
8 -54 11 -3 2 -7 22 -10 45 -3 22 -12 42 -19 45 -19 7 -27 -11 -9 -21 14 -8
14 -13 0 -46 -12 -30 -20 -37 -44 -37 -15 0 -41 5 -57 10 l-29 10 3 146 c3
121 1 147 -11 157 -14 11 -14 16 0 50 17 42 24 43 90 21 46 -16 48 -16 63 4
18 26 13 26 58 3z m-865 -21 c44 -28 46 -31 36 -57 -22 -58 -63 -80 -89 -47
-8 8 -22 20 -32 25 -18 10 -19 5 -18 -88 1 -54 -1 -106 -5 -115 -6 -15 -2 -18
21 -18 22 0 25 3 16 12 -16 16 -15 40 2 63 12 17 17 17 60 5 l46 -13 0 -103
c0 -116 1 -114 -72 -93 -32 8 -38 14 -38 36 0 26 0 26 -20 8 -18 -17 -25 -17
-58 -6 -81 29 -78 18 -72 207 l5 168 44 13 c25 7 49 17 55 23 19 19 72 10 119
-20z m210 21 c21 -5 39 -5 43 0 3 5 16 9 30 9 23 0 24 -2 24 -75 l0 -75 -29 0
c-43 0 -61 10 -61 32 0 11 -5 18 -12 15 -12 -4 -13 -24 -3 -54 3 -8 21 -13 43
-13 21 0 41 -3 45 -6 10 -10 -19 -79 -34 -80 -8 0 -25 4 -38 8 -31 11 -51 -6
-25 -20 11 -5 45 -13 77 -16 31 -4 57 -10 57 -12 0 -3 -7 -18 -15 -34 -12 -23
-24 -30 -60 -36 -46 -6 -98 -1 -150 18 l-30 10 0 144 0 144 27 11 c15 6 33 17
39 25 13 16 21 17 72 5z m333 -22 l52 -20 6 -67 c15 -154 18 -172 32 -172 11
0 11 -6 0 -37 -15 -44 -32 -49 -96 -30 -42 12 -45 15 -42 44 2 25 -2 33 -18
38 -27 8 -37 0 -22 -18 9 -10 8 -22 -1 -46 -11 -31 -14 -32 -51 -27 -59 10
-79 24 -71 49 3 12 12 57 19 100 8 45 21 86 32 98 17 19 17 20 -4 26 -23 6
-23 11 -1 71 9 22 13 23 62 17 28 -4 75 -16 103 -26z m-386 -374 c32 -17 38
-43 20 -90 -9 -23 -15 -26 -51 -23 l-41 3 -3 48 c-2 39 1 50 18 62 26 18 22
18 57 0z m120 -15 c0 -24 -4 -30 -22 -31 -17 -1 -19 -2 -5 -6 33 -9 7 -63 -31
-63 -17 0 -21 7 -24 55 -3 49 -1 56 17 60 46 10 60 13 63 14 1 0 2 -12 2 -29z
m206 17 l39 -2 4 -50 5 -50 5 50 6 50 43 3 c36 3 42 0 42 -17 0 -11 -4 -22
-10 -26 -5 -3 -7 -12 -3 -20 3 -10 -1 -15 -13 -16 -16 0 -15 -2 4 -10 40 -16
14 -28 -58 -27 -64 0 -70 2 -71 22 -2 20 -2 20 -6 -1 -3 -16 -11 -23 -29 -23
-22 0 -24 4 -25 53 0 28 -3 46 -6 40 -2 -7 -11 -13 -19 -13 -16 0 -19 -45 -4
-55 16 -10 1 -25 -26 -25 -22 0 -24 4 -24 45 0 25 -4 45 -10 45 -5 0 -10 6
-10 14 0 16 54 25 101 18 14 -2 44 -5 65 -5z m438 -69 l37 -33 -35 -95 c-20
-52 -36 -100 -36 -106 0 -6 11 -16 24 -22 17 -8 25 -21 29 -53 3 -23 10 -45
16 -49 8 -4 8 -16 0 -41 -16 -48 -18 -49 -71 -38 -41 9 -48 14 -48 35 0 35
-17 29 -30 -11 -12 -38 -16 -38 -95 -14 l-30 9 3 176 c3 126 0 179 -8 184 -8
5 -9 18 -3 41 11 39 31 46 91 29 l40 -10 -5 -93 c-3 -51 -1 -103 5 -117 13
-33 16 -23 38 123 11 73 22 117 29 117 6 0 28 -15 49 -32z m-994 -19 c98 -60
106 -71 125 -174 18 -92 18 -97 0 -156 -18 -57 -22 -63 -64 -81 -49 -21 -75
-19 -146 8 l-40 15 -3 140 -2 139 27 11 27 10 -33 20 c-28 17 -31 22 -20 35
11 14 76 52 89 54 3 0 21 -10 40 -21z m339 -89 l46 -18 11 -112 c7 -72 16
-115 24 -120 11 -7 11 -16 1 -49 -13 -45 -14 -45 -98 -19 -29 8 -33 14 -33 44
0 30 -3 34 -25 34 -25 0 -35 -15 -14 -22 7 -2 8 -15 2 -38 -9 -32 -12 -35 -43
-32 -64 7 -83 19 -76 50 3 15 11 61 17 102 6 41 19 83 28 93 14 17 14 19 -2
28 -13 7 -15 17 -11 37 14 57 19 60 75 50 28 -5 72 -18 98 -28z m329 11 c22
-16 42 -34 45 -38 3 -5 -6 -35 -21 -67 -24 -54 -25 -59 -9 -71 9 -7 20 -27 24
-46 3 -19 10 -37 16 -40 11 -8 0 -64 -16 -77 -8 -6 -29 -5 -57 2 -42 10 -45
13 -48 48 -3 37 -32 77 -32 45 0 -9 4 -18 9 -21 5 -3 3 -23 -4 -43 -12 -33
-17 -38 -41 -35 -15 2 -42 9 -58 16 l-31 13 7 119 c5 97 4 121 -8 130 -17 14
-18 25 -2 59 13 28 31 31 90 13 33 -10 41 -9 56 5 22 23 33 22 80 -12z"/>
<path d="M1150 1064 c0 -63 2 -75 14 -65 18 15 29 123 13 133 -24 15 -27 7
-27 -68z"/>
<path d="M820 1076 c0 -31 5 -46 16 -50 24 -9 26 -3 19 48 -10 62 -35 63 -35
2z"/>
<path d="M492 765 c0 -16 2 -22 5 -12 2 9 2 23 0 30 -3 6 -5 -1 -5 -18z"/>
<path d="M831 794 c0 -11 3 -14 6 -6 3 7 2 16 -1 19 -3 4 -6 -2 -5 -13z"/>
<path d="M1164 426 c-4 -11 -2 -21 7 -27 18 -11 24 5 10 28 -9 17 -10 17 -17
-1z"/>
<path d="M280 610 c0 -3 -2 -49 -3 -103 -2 -96 -2 -97 22 -97 l24 0 -7 88 c-5
54 -13 93 -22 102 -8 8 -14 12 -14 10z"/>
<path d="M546 558 c-3 -13 -6 -35 -6 -50 0 -22 5 -28 21 -28 20 0 21 4 15 43
-8 51 -21 66 -30 35z"/>
<path d="M860 541 c0 -53 15 -69 26 -27 8 33 2 69 -13 74 -9 2 -13 -11 -13
-47z"/>
</g>
</svg>
